<svg width="0" height="0" class="hidden">
    <symbol id="icon-youtube" width="14" height="10" viewBox="0 0 14 10" fill="none" xmlns="http://www.w3.org/2000/svg">
        <path d="M13.6902 1.45859L13.7077 1.57292C13.5385 0.972668 13.0818 0.509501 12.5013 0.340917L12.4891 0.338C11.3977 0.0416664 7.00576 0.0416665 7.00576 0.0416665C7.00576 0.0416665 2.62493 0.0358331 1.52243 0.338C0.930927 0.509501 0.473594 0.972668 0.307344 1.56067L0.304428 1.57292C-0.103323 3.70267 -0.106239 6.26176 0.322511 8.54201L0.304428 8.42651C0.473594 9.02676 0.930344 9.48993 1.51076 9.65851L1.52301 9.66143C2.61326 9.95835 7.00634 9.95835 7.00634 9.95835C7.00634 9.95835 11.3866 9.95835 12.4897 9.66143C13.0818 9.48993 13.5391 9.02676 13.7053 8.43876L13.7083 8.42651C13.8938 7.43601 13.9999 6.29618 13.9999 5.13184C13.9999 5.08926 13.9999 5.04609 13.9993 5.00292C13.9999 4.96326 13.9999 4.91601 13.9999 4.86876C13.9999 3.70384 13.8938 2.564 13.6902 1.45859ZM5.60459 7.12976V2.8755L9.25976 5.00584L5.60459 7.12976Z" fill="#FD4F4F"/>
    </symbol>
    <symbol id="icon-vk" width="14" height="8" viewBox="0 0 14 8" fill="none" xmlns="http://www.w3.org/2000/svg">
        <path d="M13.8752 7.13082C13.8376 7.06782 13.6048 6.56203 12.4847 5.52245C11.3121 4.43387 11.4696 4.61063 12.882 2.72837C13.7422 1.58203 14.0861 0.88198 13.9785 0.582708C13.8761 0.297437 13.2434 0.372693 13.2434 0.372693L11.1397 0.384943C11.1397 0.384943 10.984 0.363942 10.8676 0.433072C10.7547 0.501327 10.6821 0.658839 10.6821 0.658839C10.6821 0.658839 10.3487 1.54615 9.90416 2.30046C8.96697 3.8922 8.59157 3.97621 8.43843 3.87733C8.08228 3.64719 8.17153 2.95151 8.17153 2.45797C8.17153 0.915233 8.40518 0.27206 7.71563 0.105798C7.48636 0.0506686 7.31835 0.0139159 6.73293 0.00779045C5.98213 -8.51392e-05 5.34596 0.0104156 4.9863 0.186304C4.74654 0.303562 4.5619 0.565207 4.67478 0.580083C4.81392 0.59846 5.12894 0.664964 5.29608 0.892481C5.51222 1.18563 5.50434 1.84543 5.50434 1.84543C5.50434 1.84543 5.6286 3.66119 5.2147 3.88695C4.9303 4.04184 4.5409 3.72594 3.70521 2.28121C3.27731 1.54178 2.95353 0.723594 2.95353 0.723594C2.95353 0.723594 2.8914 0.571332 2.78027 0.489951C2.64551 0.391069 2.4565 0.359567 2.4565 0.359567L0.456103 0.371818C0.456103 0.371818 0.155957 0.380568 0.0456986 0.510953C-0.0523084 0.627337 0.0378231 0.867104 0.0378231 0.867104C0.0378231 0.867104 1.60419 4.531 3.37706 6.37826C5.00381 8.07151 6.85019 7.96038 6.85019 7.96038H7.68675C7.68675 7.96038 7.93964 7.93238 8.06828 7.79324C8.18729 7.66548 8.18291 7.42572 8.18291 7.42572C8.18291 7.42572 8.16628 6.30301 8.68782 6.13762C9.20148 5.97486 9.86128 7.2227 10.5605 7.70311C11.089 8.06626 11.4906 7.98663 11.4906 7.98663L13.3607 7.96038C13.3607 7.96038 14.339 7.9 13.8752 7.13082Z" fill="#5F9DE6"/>
    </symbol>
</svg>