<svg width="0" height="0" class="hidden">
    <symbol id="icon-youtube" viewBox="0 0 14 10" fill="none" xmlns="http://www.w3.org/2000/svg">
        <path d="M13.6902 1.45859L13.7077 1.57292C13.5385 0.972668 13.0818 0.509501 12.5013 0.340917L12.4891 0.338C11.3977 0.0416664 7.00576 0.0416665 7.00576 0.0416665C7.00576 0.0416665 2.62493 0.0358331 1.52243 0.338C0.930927 0.509501 0.473594 0.972668 0.307344 1.56067L0.304428 1.57292C-0.103323 3.70267 -0.106239 6.26176 0.322511 8.54201L0.304428 8.42651C0.473594 9.02676 0.930344 9.48993 1.51076 9.65851L1.52301 9.66143C2.61326 9.95835 7.00634 9.95835 7.00634 9.95835C7.00634 9.95835 11.3866 9.95835 12.4897 9.66143C13.0818 9.48993 13.5391 9.02676 13.7053 8.43876L13.7083 8.42651C13.8938 7.43601 13.9999 6.29618 13.9999 5.13184C13.9999 5.08926 13.9999 5.04609 13.9993 5.00292C13.9999 4.96326 13.9999 4.91601 13.9999 4.86876C13.9999 3.70384 13.8938 2.564 13.6902 1.45859ZM5.60459 7.12976V2.8755L9.25976 5.00584L5.60459 7.12976Z"
              fill="#FD4F4F"/>
    </symbol>
    <symbol id="icon-vk" viewBox="0 0 14 8" fill="none" xmlns="http://www.w3.org/2000/svg">
        <path d="M13.8752 7.13082C13.8376 7.06782 13.6048 6.56203 12.4847 5.52245C11.3121 4.43387 11.4696 4.61063 12.882 2.72837C13.7422 1.58203 14.0861 0.88198 13.9785 0.582708C13.8761 0.297437 13.2434 0.372693 13.2434 0.372693L11.1397 0.384943C11.1397 0.384943 10.984 0.363942 10.8676 0.433072C10.7547 0.501327 10.6821 0.658839 10.6821 0.658839C10.6821 0.658839 10.3487 1.54615 9.90416 2.30046C8.96697 3.8922 8.59157 3.97621 8.43843 3.87733C8.08228 3.64719 8.17153 2.95151 8.17153 2.45797C8.17153 0.915233 8.40518 0.27206 7.71563 0.105798C7.48636 0.0506686 7.31835 0.0139159 6.73293 0.00779045C5.98213 -8.51392e-05 5.34596 0.0104156 4.9863 0.186304C4.74654 0.303562 4.5619 0.565207 4.67478 0.580083C4.81392 0.59846 5.12894 0.664964 5.29608 0.892481C5.51222 1.18563 5.50434 1.84543 5.50434 1.84543C5.50434 1.84543 5.6286 3.66119 5.2147 3.88695C4.9303 4.04184 4.5409 3.72594 3.70521 2.28121C3.27731 1.54178 2.95353 0.723594 2.95353 0.723594C2.95353 0.723594 2.8914 0.571332 2.78027 0.489951C2.64551 0.391069 2.4565 0.359567 2.4565 0.359567L0.456103 0.371818C0.456103 0.371818 0.155957 0.380568 0.0456986 0.510953C-0.0523084 0.627337 0.0378231 0.867104 0.0378231 0.867104C0.0378231 0.867104 1.60419 4.531 3.37706 6.37826C5.00381 8.07151 6.85019 7.96038 6.85019 7.96038H7.68675C7.68675 7.96038 7.93964 7.93238 8.06828 7.79324C8.18729 7.66548 8.18291 7.42572 8.18291 7.42572C8.18291 7.42572 8.16628 6.30301 8.68782 6.13762C9.20148 5.97486 9.86128 7.2227 10.5605 7.70311C11.089 8.06626 11.4906 7.98663 11.4906 7.98663L13.3607 7.96038C13.3607 7.96038 14.339 7.9 13.8752 7.13082Z"
              fill="#5F9DE6"/>
    </symbol>
    <symbol id="icon-instagram" xmlns="http://www.w3.org/2000/svg" viewBox="0 0 24 24">
        <path d="M12 2.163c3.204 0 3.584.012 4.85.07 3.252.148 4.771 1.691 4.919 4.919.058 1.265.069 1.645.069 4.849 0 3.205-.012 3.584-.069 4.849-.149 3.225-1.664 4.771-4.919 4.919-1.266.058-1.644.07-4.85.07-3.204 0-3.584-.012-4.849-.07-3.26-.149-4.771-1.699-4.919-4.92-.058-1.265-.07-1.644-.07-4.849 0-3.204.013-3.583.07-4.849.149-3.227 1.664-4.771 4.919-4.919 1.266-.057 1.645-.069 4.849-.069zm0-2.163c-3.259 0-3.667.014-4.947.072-4.358.2-6.78 2.618-6.98 6.98-.059 1.281-.073 1.689-.073 4.948 0 3.259.014 3.668.072 4.948.2 4.358 2.618 6.78 6.98 6.98 1.281.058 1.689.072 4.948.072 3.259 0 3.668-.014 4.948-.072 4.354-.2 6.782-2.618 6.979-6.98.059-1.28.073-1.689.073-4.948 0-3.259-.014-3.667-.072-4.947-.196-4.354-2.617-6.78-6.979-6.98-1.281-.059-1.69-.073-4.949-.073zm0 5.838c-3.403 0-6.162 2.759-6.162 6.162s2.759 6.163 6.162 6.163 6.162-2.759 6.162-6.163c0-3.403-2.759-6.162-6.162-6.162zm0 10.162c-2.209 0-4-1.79-4-4 0-2.209 1.791-4 4-4s4 1.791 4 4c0 2.21-1.791 4-4 4zm6.406-11.845c-.796 0-1.441.645-1.441 1.44s.645 1.44 1.441 1.44c.795 0 1.439-.645 1.439-1.44s-.644-1.44-1.439-1.44z"/>
    </symbol>
    <symbol id="icon-viber-2" viewBox="0 0 19 22" xmlns="http://www.w3.org/2000/svg">
        <path d="M18.2958 12.5775C18.8925 7.555 18.0092 4.38416 16.4158 2.94999L16.4167 2.94916C13.845 0.49999 5.16001 0.137489 2.08334 3.05916C0.701672 4.48833 0.215005 6.58583 0.161672 9.1825C0.108338 11.78 0.0450051 16.6458 4.57917 17.9658H4.58334L4.57917 19.9817C4.57917 19.9817 4.54834 20.7983 5.07 20.9625C5.66667 21.1558 5.93667 20.7767 7.7925 18.56C10.8958 18.8292 13.2792 18.2125 13.55 18.1225C14.1767 17.9125 17.7225 17.4433 18.2958 12.5775ZM8.09834 17.1417C8.09834 17.1417 6.13417 19.5908 5.52334 20.2267C5.32334 20.4333 5.10417 20.4142 5.1075 20.0042C5.1075 19.735 5.1225 16.6575 5.1225 16.6575C1.27834 15.5558 1.50501 11.4125 1.54667 9.245C1.58834 7.07666 1.98501 5.30083 3.15501 4.10499C5.85417 1.57416 13.4683 2.13999 15.4083 3.96333C17.78 6.06583 16.9358 12.0058 16.9408 12.2083C16.4533 16.27 13.58 16.5275 13.0517 16.7033C12.8258 16.7783 10.73 17.3175 8.09834 17.1417Z" />
        <path d="M9.18499 4.58084C8.86416 4.58084 8.86416 5.08084 9.18499 5.08501C11.6742 5.10417 13.7241 6.83917 13.7466 10.0217C13.7466 10.3575 14.2383 10.3533 14.2341 10.0175H14.2333C14.2066 6.58834 11.9683 4.60001 9.18499 4.58084Z" />
        <path d="M12.4592 9.49417C12.4517 9.82583 12.9425 9.84167 12.9467 9.50583C12.9875 7.615 11.8217 6.0575 9.63083 5.89333C9.31 5.87 9.27667 6.37417 9.59667 6.3975C11.4967 6.54167 12.4975 7.83833 12.4592 9.49417Z" />
        <path d="M11.9342 11.645C11.5225 11.4067 11.1033 11.555 10.93 11.7892L10.5675 12.2583C10.3833 12.4967 10.0392 12.465 10.0392 12.465C7.52751 11.8008 6.85584 9.17251 6.85584 9.17251C6.85584 9.17251 6.82501 8.81667 7.05501 8.62584L7.50834 8.25084C7.73501 8.07084 7.87834 7.63751 7.64751 7.21167C7.03084 6.09751 6.61668 5.71334 6.40584 5.41834C6.18418 5.14084 5.85084 5.07834 5.50417 5.26584H5.49667C4.77584 5.68751 3.98667 6.47667 4.23917 7.28917C4.67001 8.14584 5.46167 10.8767 7.98501 12.94C9.17085 13.9158 11.0475 14.9158 11.8442 15.1467L11.8517 15.1583C12.6367 15.42 13.4 14.6 13.8075 13.8575V13.8517C13.9884 13.4925 13.9284 13.1525 13.6642 12.93C13.1959 12.4733 12.4892 11.9692 11.9342 11.645Z" />
        <path d="M9.97415 7.75333C10.775 7.8 11.1633 8.21833 11.205 9.0775C11.22 9.41333 11.7075 9.39 11.6925 9.05417C11.6391 7.9325 11.0541 7.30749 10.0008 7.24916C9.67999 7.22999 9.64999 7.73416 9.97415 7.75333Z" />
    </symbol>
    <symbol id="icon-telegram-2" viewBox="0 0 20 18" xmlns="http://www.w3.org/2000/svg">
        <path d="M7.84753 11.6508L7.5167 16.3042C7.99003 16.3042 8.19503 16.1008 8.44086 15.8567L10.66 13.7358L15.2584 17.1033C16.1017 17.5733 16.6959 17.3258 16.9234 16.3275L19.9417 2.18416L19.9425 2.18333C20.21 0.936659 19.4917 0.449159 18.67 0.754992L0.92836 7.54749C-0.282474 8.01749 -0.264141 8.69249 0.722526 8.99833L5.25836 10.4092L15.7942 3.81666C16.29 3.48833 16.7409 3.66999 16.37 3.99833L7.84753 11.6508Z"/>
    </symbol>
    <symbol id="icon-instagram-2" viewBox="0 0 19 19" xmlns="http://www.w3.org/2000/svg">
        <path d="M9.687 19C9.62408 19 9.56117 19 9.49783 18.9997C8.00852 19.0033 6.63243 18.9655 5.29417 18.884C4.06725 18.8094 2.9473 18.3854 2.05522 17.658C1.19446 16.9561 0.606651 16.007 0.308182 14.8375C0.0484162 13.8193 0.0346451 12.8198 0.0214539 11.8531C0.0118866 11.1595 0.00202942 10.3376 0 9.50175C0.00202942 8.66244 0.0118866 7.84052 0.0214539 7.1469C0.0346451 6.18031 0.0484162 5.18082 0.308182 4.16249C0.606651 2.99297 1.19446 2.04392 2.05522 1.34203C2.9473 0.614632 4.06725 0.190628 5.29432 0.115975C6.63258 0.0346528 8.00896 -0.00332632 9.50145 0.000297649C10.9912 -0.00289144 12.3668 0.0346528 13.7051 0.115975C14.932 0.190628 16.052 0.614632 16.9441 1.34203C17.805 2.04392 18.3926 2.99297 18.6911 4.16249C18.9509 5.18068 18.9646 6.18031 18.9778 7.1469C18.9874 7.84052 18.9974 8.66244 18.9993 9.49827V9.50175C18.9974 10.3376 18.9874 11.1595 18.9778 11.8531C18.9646 12.8197 18.951 13.8192 18.6911 14.8375C18.3926 16.007 17.805 16.9561 16.9441 17.658C16.052 18.3854 14.932 18.8094 13.7051 18.884C12.4235 18.962 11.107 19 9.687 19ZM9.49783 17.5153C10.9629 17.5188 12.3081 17.4819 13.6149 17.4024C14.5427 17.346 15.347 17.045 16.006 16.5076C16.6151 16.0108 17.0347 15.3255 17.2528 14.4705C17.4691 13.6229 17.4816 12.7129 17.4936 11.8328C17.503 11.1438 17.5129 10.3277 17.5149 9.50001C17.5129 8.67215 17.503 7.85618 17.4936 7.16719C17.4816 6.28715 17.4691 5.3771 17.2528 4.52938C17.0347 3.67442 16.6151 2.98905 16.006 2.49228C15.347 1.95506 14.5427 1.65398 13.6149 1.5976C12.3081 1.51801 10.9629 1.48134 9.5013 1.48453C8.0365 1.48105 6.69114 1.51801 5.38434 1.5976C4.4566 1.65398 3.65223 1.95506 2.99325 2.49228C2.38413 2.98905 1.96462 3.67442 1.74646 4.52938C1.53018 5.3771 1.51772 6.287 1.50568 7.16719C1.49626 7.85676 1.4864 8.67331 1.48438 9.50175C1.4864 10.3266 1.49626 11.1433 1.50568 11.8328C1.51772 12.7129 1.53018 13.6229 1.74646 14.4705C1.96462 15.3255 2.38413 16.0108 2.99325 16.5076C3.65223 17.0448 4.4566 17.3459 5.38434 17.4023C6.69114 17.4819 8.03679 17.519 9.49783 17.5153ZM9.46246 14.1387C6.90481 14.1387 4.82378 12.0578 4.82378 9.50001C4.82378 6.94221 6.90481 4.86134 9.46246 4.86134C12.0202 4.86134 14.1011 6.94221 14.1011 9.50001C14.1011 12.0578 12.0202 14.1387 9.46246 14.1387ZM9.46246 6.34571C7.72324 6.34571 6.30816 7.7608 6.30816 9.50001C6.30816 11.2392 7.72324 12.6543 9.46246 12.6543C11.2018 12.6543 12.6168 11.2392 12.6168 9.50001C12.6168 7.7608 11.2018 6.34571 9.46246 6.34571ZM14.6207 3.37696C14.0059 3.37696 13.5074 3.87533 13.5074 4.49024C13.5074 5.10516 14.0059 5.60352 14.6207 5.60352C15.2356 5.60352 15.7339 5.10516 15.7339 4.49024C15.7339 3.87533 15.2356 3.37696 14.6207 3.37696Z" />
    </symbol>
    <symbol id="icon-vk-2" viewBox="0 0 20 12" xmlns="http://www.w3.org/2000/svg">
        <path d="M16.5958 6.85669C16.2725 6.44835 16.365 6.26669 16.5958 5.90169C16.6 5.89752 19.2692 2.20919 19.5442 0.958354L19.5458 0.95752C19.6825 0.501687 19.5458 0.166687 18.885 0.166687H16.6983C16.1417 0.166687 15.885 0.454187 15.7475 0.775854C15.7475 0.775854 14.6342 3.44085 13.0592 5.16835C12.5508 5.66752 12.3158 5.82752 12.0383 5.82752C11.9017 5.82752 11.6892 5.66752 11.6892 5.21169V0.95752C11.6892 0.410854 11.5333 0.166687 11.0725 0.166687H7.63416C7.285 0.166687 7.0775 0.421687 7.0775 0.659187C7.0775 1.17752 7.865 1.29669 7.94666 2.75502V5.91919C7.94666 6.61252 7.82083 6.74002 7.54166 6.74002C6.79833 6.74002 4.99416 4.06419 3.925 1.00169C3.70917 0.40752 3.49833 0.16752 2.9375 0.16752H0.75C0.125833 0.16752 0 0.45502 0 0.776687C0 1.34502 0.743333 4.17085 3.45667 7.90419C5.265 10.4525 7.81166 11.8334 10.1283 11.8334C11.5208 11.8334 11.6908 11.5267 11.6908 10.9992C11.6908 8.56419 11.565 8.33419 12.2625 8.33419C12.5858 8.33419 13.1425 8.49419 14.4425 9.72336C15.9283 11.1809 16.1725 11.8334 17.0042 11.8334H19.1908C19.8142 11.8334 20.13 11.5267 19.9483 10.9217C19.5325 9.64919 16.7225 7.03169 16.5958 6.85669Z" />
    </symbol>
    <symbol id="icon-whatsapp-2" viewBox="0 0 35 35" xmlns="http://www.w3.org/2000/svg">
        <path d="M26.7572 21.1727L26.7432 21.2898C23.309 19.5782 22.9498 19.3502 22.5063 20.0155C22.1987 20.4762 21.3022 21.521 21.0321 21.8302C20.7588 22.1347 20.487 22.1581 20.0232 21.9473C19.5547 21.7131 18.0508 21.2211 16.2705 19.6282C14.8837 18.3866 13.9529 16.864 13.678 16.3955C13.2205 15.6053 14.1778 15.4928 15.0492 13.8437C15.2054 13.5157 15.1257 13.258 15.0102 13.0253C14.893 12.7911 13.9607 10.4954 13.5703 9.58024C13.1955 8.66821 12.8097 8.78378 12.5208 8.78378C11.6213 8.7057 10.9638 8.71819 10.3844 9.321C7.86385 12.0915 8.49947 14.9494 10.6562 17.9884C14.8946 23.5356 17.1528 24.5569 21.2819 25.9749C22.397 26.3294 23.4137 26.2795 24.2179 26.1639C25.1143 26.0218 26.9774 25.0379 27.3663 23.9369C27.7645 22.8359 27.7645 21.9223 27.6474 21.7115C27.5318 21.5007 27.2258 21.3835 26.7572 21.1727Z" />
        <path d="M29.9245 5.03033C18.7115 -5.80926 0.154581 2.05247 0.147289 17.3443C0.147289 20.4009 0.947899 23.3817 2.47329 26.0139L0 35L9.23837 32.5909C20.7663 38.8178 34.9935 30.5492 34.9994 17.353C34.9994 12.7214 33.1911 8.36256 29.9026 5.08721L29.9245 5.03033ZM32.0857 17.3049C32.0769 28.4362 19.8578 35.3879 10.1936 29.7063L9.66857 29.3943L4.19992 30.8161L5.66552 25.5006L5.31699 24.9537C-0.697071 15.3799 6.21239 2.86766 17.6047 2.86766C21.475 2.86766 25.1077 4.37701 27.8435 7.11134C30.5778 9.82233 32.0857 13.455 32.0857 17.3049Z" />
    </symbol>
</svg>